<svg width="679" height="323" viewBox="0 0 679 323" fill="none" xmlns="http://www.w3.org/2000/svg">
<g opacity="0.3" clip-path="url(#clip0_10506_3578)">
<path opacity="0.15" d="M258.466 538.767C188.647 534.205 129.709 519.779 86.4793 496.68C38.7551 471.178 9.92532 436.007 1.67601 393.226C-0.57883 381.536 -0.553664 358.237 1.72131 346.135C9.76929 303.379 34.3159 261.609 75.0289 221.378C118.032 178.884 195.25 129.649 256.952 105.394C266.419 101.672 275.071 98.2363 276.188 97.7534C278.181 96.8933 278.181 96.8782 276.113 96.8077C272.358 96.687 251.692 100.731 237.448 104.373C165.837 122.703 97.6377 162.139 31.7893 223.305C23.7614 230.759 15.4165 238.405 13.2422 240.291L9.29115 243.722L10.9168 239.788C13.4988 233.536 23.2178 216.589 30.2642 206.046C73.071 141.988 148.719 92.0593 258.129 55.6414L284.609 46.8287L289.511 51.1496C299.678 60.1132 314.244 65.1383 332.378 65.9431L343.008 66.4109L333.898 63.8304C328.885 62.4119 321.094 59.4643 316.584 57.2863C306.689 52.5027 299.889 45.6466 291.338 31.834C285.58 22.5283 275.569 4.58092 274.447 1.54274C273.964 0.229886 277.109 0.737926 291.509 4.2942C325.86 12.7749 350.628 17.0203 388.17 20.8633C409.506 23.0464 415.5 24.3794 421.354 28.2526L425.093 30.7274L447.838 30.2042C472.415 29.6409 477.352 30.1942 496.02 35.6015C510.022 39.6558 551.792 55.1334 560.661 59.5548C575.634 67.0145 585.449 75.3846 585.459 80.7014C585.469 83.3472 579.384 87.9749 573.103 90.1127L567.335 92.0744L556.408 88.3823C550.398 86.3502 542.451 83.9911 538.752 83.1309C529.652 81.0233 499.272 76.3151 498.668 76.9187C498.401 77.1853 499.84 78.0958 501.864 78.9408C503.887 79.7859 509.288 83.1762 513.868 86.4759C528.222 96.8228 535.983 99.7504 549.11 99.7705C561.834 99.7906 576.294 95.0875 588.655 86.9135C593.26 83.8703 594.262 84.0414 607.237 90.1026C622.629 97.2906 636.354 107.23 653.286 123.447C656.904 126.913 663.13 132.33 667.117 135.479C675.713 142.275 679 146.545 679 150.932C679 155.318 676.589 158.648 671.299 161.45C665.018 164.779 660.971 163.829 653.547 157.28C646.305 150.891 642.792 149.367 633.661 148.653C625.9 148.044 625.387 149.136 632.383 151.374C634.527 152.058 639.178 155.242 642.716 158.447C647.276 162.576 650.497 164.613 653.789 165.443C659.21 166.807 659.346 166.379 650.316 176.676C642.172 185.966 641.74 186.323 636.072 188.446C633.365 189.462 629.263 192.415 625.951 195.735C618.844 202.857 612.945 206.58 604.691 209.155C597.02 211.549 576.344 213.094 576.344 211.273C576.344 210.659 579.419 207.696 583.179 204.698C590.014 199.246 596.457 192.717 598.364 189.306C599.723 186.877 602.426 188.018 603.271 191.384C604.026 194.387 602.491 197.822 598.465 202.133C596.356 204.391 596.139 205.005 597.453 205C603.206 204.965 621.844 191.519 618.628 189.724C617.888 189.311 609.095 187.254 599.089 185.151C582.223 181.61 579.651 181.333 563.691 181.308C545.234 181.283 535.551 182.576 519.495 187.229C507.013 190.845 499.684 194.598 493.584 200.493C486.976 206.881 486.628 209.09 492.804 205.473C496.141 203.516 498.114 202.988 500.273 203.461C504.531 204.396 518.705 213.375 523.924 218.446C528.605 222.993 533.311 231.398 534.474 237.293C535.083 240.367 534.947 240.674 533.225 240.115C516.027 234.562 508.81 233.35 502.694 234.985C499.669 235.794 499.78 237.384 502.855 237.384C507.899 237.384 518.076 241.453 526.702 246.921C538.661 254.496 542.652 255.864 553.197 255.995C563.042 256.116 564.818 255.211 568.372 248.264C569.858 245.353 568.128 244.763 563.182 246.493C556.514 248.837 549.221 249.054 544.424 247.052C539.612 245.045 540.02 243.46 545.345 243.46C552.719 243.46 563.55 240.482 572.982 235.865C577.894 233.46 582.107 231.685 582.344 231.921C583.466 233.038 580.079 245.739 576.968 252.062C574.819 256.433 573.254 261.377 572.881 264.979C571.311 280.089 563.61 290.884 547.464 300.602C530.105 311.05 508.533 310.909 485.647 300.19C471.232 293.439 463.466 287.549 446.766 270.703C432.915 256.735 430.182 254.456 423.483 251.287C404.916 242.52 363.337 236.559 328.83 237.716C241.454 240.653 164.01 279.093 111.69 345.486C92.1365 370.304 74.5407 407.451 67.7762 438.216C63.0802 459.553 63.2312 459.865 70.9219 444.664C118.203 351.24 223.496 280.115 353.175 254.003C369.583 250.699 394.125 248.183 394.125 249.808C394.125 250.12 390.365 251.619 385.775 253.143C366.629 259.491 343.899 270.311 324.557 282.283C289.803 303.796 262.377 332.558 247.263 363.348C240.075 377.995 236.291 391.27 235.581 404.323L235.057 413.935L238.5 406.345C257.43 364.61 283.3 335.194 321.788 311.648C331.271 305.849 343.738 299.098 344.971 299.098C345.253 299.098 340.592 303.992 334.618 309.973C308.018 336.597 292.385 364.58 284.593 399.509C281.589 412.979 281.317 441.289 284.06 454.976C289.848 483.864 302.592 510.463 321.33 532.766L327.32 539.899L299.22 539.753C283.763 539.673 265.427 539.235 258.466 538.782V538.767Z" fill="#444343"/>
</g>
<defs>
<clipPath id="clip0_10506_3578">
<rect width="679" height="539" fill="white" transform="translate(0 0.888672)"/>
</clipPath>
</defs>
</svg>
