<svg width="987" height="356" viewBox="0 0 987 356" fill="none" xmlns="http://www.w3.org/2000/svg">
<g clip-path="url(#clip0_10456_7700)">
<path opacity="0.15" d="M375.811 781.606C274.423 774.978 188.837 754.021 126.062 720.467C56.7603 683.419 14.8955 632.327 2.9164 570.18C-0.35794 553.198 -0.321396 519.351 2.98218 501.77C14.6689 439.659 50.3139 378.98 109.435 320.538C171.881 258.807 284.013 187.284 373.611 152.049C387.359 146.642 399.923 141.651 401.545 140.949C404.44 139.7 404.44 139.678 401.436 139.576C395.983 139.4 365.973 145.275 345.289 150.566C241.3 177.193 142.266 234.481 46.6449 323.336C34.9874 334.166 22.8694 345.272 19.712 348.013L13.9746 352.996L16.3353 347.282C20.0848 338.199 34.198 313.581 44.4303 298.265C106.592 205.209 216.443 132.678 375.321 79.7737L413.773 66.9715L420.892 73.2484C435.655 86.2698 456.807 93.5696 483.141 94.7388L498.577 95.4184L485.348 91.6698C478.068 89.6091 466.754 85.3271 460.206 82.1631C445.837 75.214 435.962 65.2543 423.545 45.1889C415.183 31.6706 400.646 5.5986 399.016 1.18507C398.315 -0.722106 402.883 0.0159189 423.793 5.18209C473.676 17.502 509.642 23.6692 564.159 29.2519C595.141 32.4232 603.845 34.3596 612.345 39.9861L617.776 43.5813L650.804 42.8213C686.493 42.0029 693.663 42.8067 720.771 50.6619C741.104 56.5515 801.76 79.0357 814.638 85.4587C836.382 96.2952 850.634 108.454 850.649 116.178C850.663 120.022 841.827 126.744 832.706 129.85L824.33 132.7L808.462 127.336C799.736 124.384 788.195 120.957 782.823 119.707C769.609 116.646 725.493 109.806 724.616 110.683C724.228 111.07 726.319 112.393 729.257 113.621C732.195 114.848 740.037 119.773 746.688 124.567C767.533 139.598 778.803 143.85 797.865 143.88C816.341 143.909 837.339 137.077 855.29 125.202C861.977 120.782 863.432 121.03 882.274 129.835C904.624 140.277 924.555 154.716 949.142 178.274C954.397 183.309 963.438 191.179 969.226 195.753C981.71 205.625 986.483 211.829 986.483 218.201C986.483 224.573 982.982 229.41 975.3 233.48C966.179 238.317 960.302 236.936 949.522 227.422C939.005 218.142 933.903 215.928 920.645 214.891C909.375 214.006 908.629 215.592 918.788 218.844C921.902 219.838 928.655 224.463 933.793 229.118C940.415 235.117 945.093 238.076 949.873 239.282C957.744 241.262 957.942 240.641 944.83 255.599C933.004 269.095 932.376 269.614 924.146 272.698C920.214 274.174 914.257 278.463 909.448 283.286C899.128 293.633 890.562 299.04 878.576 302.781C867.437 306.26 837.412 308.503 837.412 305.858C837.412 304.966 841.878 300.662 847.338 296.307C857.263 288.386 866.618 278.901 869.388 273.947C871.362 270.418 875.287 272.077 876.514 276.965C877.611 281.327 875.382 286.318 869.535 292.58C866.472 295.861 866.158 296.753 868.066 296.746C876.419 296.694 903.484 277.162 898.814 274.554C897.739 273.954 884.971 270.966 870.441 267.911C845.949 262.767 842.214 262.365 819.038 262.329C792.237 262.292 778.175 264.17 754.86 270.929C736.734 276.183 726.092 281.634 717.234 290.198C707.637 299.478 707.133 302.686 716.101 297.432C720.947 294.59 723.812 293.823 726.947 294.51C733.131 295.869 753.712 308.912 761.291 316.278C768.089 322.883 774.922 335.094 776.611 343.658C777.495 348.122 777.298 348.568 774.798 347.757C749.824 339.69 739.343 337.929 730.463 340.304C726.07 341.48 726.231 343.789 730.697 343.789C738.02 343.789 752.799 349.701 765.326 357.644C782.691 368.648 788.487 370.636 803.799 370.826C818.095 371.001 820.675 369.686 825.835 359.595C827.994 355.366 825.482 354.509 818.3 357.022C808.616 360.428 798.025 360.742 791.06 357.834C784.073 354.918 784.665 352.616 792.398 352.616C803.105 352.616 818.833 348.29 832.53 341.582C839.664 338.09 845.781 335.51 846.125 335.854C847.754 337.476 842.836 355.926 838.319 365.111C835.198 371.461 832.925 378.644 832.384 383.876C830.104 405.827 818.921 421.508 795.475 435.626C770.267 450.803 738.941 450.598 705.708 435.026C684.776 425.22 673.498 416.664 649.248 392.192C629.134 371.9 625.165 368.59 615.437 363.986C588.475 351.25 528.097 342.591 477.988 344.271C351.107 348.539 238.647 404.38 162.672 500.828C134.277 536.881 108.726 590.845 98.9028 635.535C92.0837 666.532 92.3029 666.985 103.471 644.903C172.13 509.187 325.03 405.864 513.341 367.932C537.167 363.131 572.805 359.478 572.805 361.838C572.805 362.291 567.345 364.468 560.68 366.682C532.877 375.904 499.87 391.622 471.783 409.013C421.316 440.266 381.49 482.048 359.542 526.775C349.105 548.054 343.608 567.337 342.578 586.3L341.818 600.264L346.817 589.237C374.305 528.609 411.873 485.877 467.763 451.672C481.533 443.247 499.637 433.441 501.427 433.441C501.836 433.441 495.069 440.551 486.393 449.239C447.766 487.916 425.065 528.566 413.751 579.307C409.388 598.875 408.993 640 412.976 659.883C421.381 701.848 439.887 740.488 467.098 772.888L475.795 783.25L434.99 783.038C412.545 782.921 385.919 782.285 375.811 781.628V781.606Z" fill="black" fill-opacity="0.3"/>
</g>
<defs>
<clipPath id="clip0_10456_7700">
<rect width="986" height="783" fill="white" transform="translate(0.482422 0.235352)"/>
</clipPath>
</defs>
</svg>
