<svg width="36" height="36" viewBox="0 0 36 36" fill="none" xmlns="http://www.w3.org/2000/svg">
<g clip-path="url(#clip0_10456_8605)">
<path d="M34.1992 14.879C34.5192 14.7259 34.8143 14.518 35.0726 14.2598C35.6706 13.6618 35.9999 12.8667 35.9999 12.021C35.9999 11.1753 35.6706 10.3803 35.0726 9.78228L31.5351 6.24472L32.6194 5.16037L31.1271 3.66791L30.0427 4.75227L26.2177 0.927279C25.6197 0.329343 24.8247 0 23.979 0C23.1332 0 22.3382 0.329273 21.7402 0.927279C21.482 1.18554 21.2741 1.48064 21.121 1.80056L21.006 1.6856C19.7715 0.451265 17.7631 0.451265 16.5285 1.6856C15.2941 2.92007 15.2941 4.92862 16.5285 6.16309L20.8002 10.4348L10.4334 20.8016L6.16174 16.5299C4.92733 15.2955 2.91872 15.2955 1.68424 16.5299C0.449841 17.7644 0.449841 19.773 1.68424 21.0074L1.79921 21.1224C1.47921 21.2755 1.18411 21.4835 0.925856 21.7417C-0.308619 22.9761 -0.308619 24.9847 0.925856 26.2191L4.46341 29.7567L3.37905 30.841L4.8715 32.3334L5.95586 31.2491L9.78085 35.0741C10.3981 35.6913 11.2088 35.9999 12.0196 35.9999C12.8304 35.9999 13.6411 35.6913 14.2583 35.0741C14.5166 34.8158 14.7244 34.5207 14.8777 34.2007L14.9926 34.3157C15.6098 34.9329 16.4205 35.2415 17.2314 35.2415C18.0421 35.2415 18.8528 34.9329 19.4701 34.3157C20.0681 33.7177 20.3974 32.9226 20.3974 32.0769C20.3974 31.2313 20.0681 30.4362 19.4701 29.8382L14.9109 25.279L25.2778 14.9122L29.8369 19.4714C30.4349 20.0694 31.23 20.3987 32.0756 20.3987C32.9214 20.3987 33.7164 20.0693 34.3143 19.4714C34.9123 18.8734 35.2416 18.0784 35.2416 17.2326C35.2416 16.3869 34.9123 15.5919 34.3143 14.994L34.1992 14.879ZM22.9235 3.1661C22.9235 2.88414 23.0333 2.61914 23.2327 2.41973C23.4321 2.22039 23.697 2.11057 23.979 2.11057C24.2609 2.11057 24.5259 2.22032 24.7253 2.41966L33.5802 11.2746C33.7797 11.474 33.8894 11.739 33.8894 12.021C33.8894 12.3028 33.7796 12.5678 33.5802 12.7673C33.3808 12.9667 33.1158 13.0764 32.834 13.0764C32.5521 13.0764 32.287 12.9666 32.0876 12.7672L23.2325 3.91225C23.0332 3.71284 22.9235 3.44791 22.9235 3.1661ZM12.7658 32.0891C12.9651 32.2884 13.0749 32.5534 13.0749 32.8354C13.0749 33.1173 12.9651 33.3823 12.7658 33.5817C12.3542 33.9932 11.6847 33.9932 11.2732 33.5817L2.41824 24.7268C2.0067 24.3152 2.0067 23.6456 2.41824 23.2342C2.61764 23.0348 2.88265 22.925 3.1646 22.925C3.44648 22.925 3.71156 23.0348 3.9109 23.2342L12.7658 32.0891ZM18.2866 32.077C18.2866 32.3589 18.1769 32.624 17.9775 32.8233C17.566 33.2349 16.8965 33.2348 16.4849 32.8233L3.17662 19.5151C2.76509 19.1035 2.76516 18.4339 3.17662 18.0224C3.38243 17.8167 3.65264 17.7138 3.92292 17.7138C4.1932 17.7138 4.46348 17.8167 4.66921 18.0224L17.9775 31.3307C18.1769 31.53 18.2866 31.7951 18.2866 32.077ZM13.4184 23.7867L11.9257 22.2941L22.2925 11.9272L23.7852 13.4199L13.4184 23.7867ZM32.8218 17.979C32.6224 18.1783 32.3574 18.2881 32.0755 18.2881C31.7935 18.2881 31.5285 18.1783 31.3291 17.979L18.0209 4.67078C17.6094 4.25931 17.6094 3.58973 18.0209 3.17812C18.4324 2.76651 19.102 2.76672 19.5136 3.17812L32.8218 16.4864C33.0212 16.6858 33.1309 16.9508 33.1309 17.2327C33.1309 17.5146 33.0211 17.7797 32.8218 17.979Z" fill="#FF8856"/>
</g>
<defs>
<clipPath id="clip0_10456_8605">
<rect width="36" height="36" fill="white"/>
</clipPath>
</defs>
</svg>
