<svg width="36" height="36" viewBox="0 0 36 36" fill="none" xmlns="http://www.w3.org/2000/svg">
<g clip-path="url(#clip0_10456_8609)">
<path d="M29.3106 3.23091L25.8159 1.39464C24.0794 0.482271 22.1247 0 20.163 0C17.3947 0 15.1425 2.25217 15.1425 5.02049C15.1425 7.78882 17.3947 10.041 20.163 10.041H23.725L23.1686 15.9239V18.1317C23.1267 18.1307 23.085 18.1295 23.0429 18.1295H19.1244C17.6602 18.1295 16.325 18.6913 15.322 19.6101C14.2726 18.4802 12.7915 17.8169 11.2018 17.8169H7.81558C7.33127 17.3929 6.74972 17.0706 6.09856 16.8847L1.65723 15.6173L1.65751 36.0001H10.7926L10.683 34.8748H13.6681C15.457 34.8748 17.0961 34.042 18.1512 32.6479C18.7931 32.8986 19.4868 33.0333 20.2049 33.0333H26.8145C28.9806 33.0333 30.9394 31.7951 31.8827 29.8547L34.3426 27.9718V16.0575L29.3106 3.23091ZM3.76701 33.8906L3.76673 18.4128L5.51982 18.9131C6.449 19.1783 7.10993 19.9709 7.20373 20.9326L8.46759 33.8906H3.76701ZM32.2332 26.93L30.1707 28.5088L30.0619 28.7648C29.5046 30.0764 28.2299 30.924 26.8145 30.924H20.2049C18.8816 30.924 17.642 30.1524 17.0466 28.9585L15.159 29.8997C15.4668 30.5171 15.8739 31.0593 16.355 31.512C15.6905 32.2915 14.705 32.7654 13.6681 32.7654H10.4772L9.3031 20.7278C9.27624 20.4525 9.22457 20.1846 9.15074 19.9262H11.2019C12.332 19.9262 13.3744 20.4627 14.0323 21.3548C13.6852 22.0857 13.4902 22.9023 13.4902 23.7637H15.5996C15.5996 21.82 17.1808 20.2388 19.1244 20.2388H23.043C24.3663 20.2388 25.6059 21.0102 26.2011 22.2042L28.089 21.2631C27.478 20.0374 26.4767 19.1067 25.2781 18.5893V16.0234L26.0434 7.93163H20.1632C18.5579 7.93163 17.252 6.62572 17.252 5.02049C17.252 3.41527 18.5579 2.10936 20.163 2.10936C21.7842 2.10936 23.3997 2.50789 24.8348 3.26199L27.634 4.73271L32.2332 16.4564V26.93Z" fill="#FF8856"/>
</g>
<defs>
<clipPath id="clip0_10456_8609">
<rect width="36" height="36" fill="white"/>
</clipPath>
</defs>
</svg>
