<svg width="1291" height="688" viewBox="0 0 1291 688" fill="none" xmlns="http://www.w3.org/2000/svg">
<path opacity="0.15" d="M491.529 1023.1C358.882 1014.43 246.908 986.992 164.779 943.067C74.1097 894.569 19.3373 827.687 3.66488 746.331C-0.618991 724.101 -0.57118 679.793 3.75094 656.778C19.0409 575.471 65.6758 496.038 143.025 419.533C224.724 338.723 371.428 245.095 488.651 198.97C506.637 191.891 523.075 185.358 525.198 184.439C528.984 182.804 528.984 182.775 525.054 182.641C517.921 182.411 478.658 190.102 451.597 197.028C315.546 231.885 185.978 306.879 60.8756 423.196C45.6239 437.373 29.7697 451.912 25.6388 455.499L18.1325 462.023L21.2211 454.543C26.1265 442.653 44.5912 410.426 57.9783 390.377C139.305 268.559 283.025 173.611 490.888 104.356L541.195 87.5974L550.509 95.8143C569.824 112.86 597.497 122.416 631.95 123.947L652.146 124.836L634.838 119.929C625.314 117.232 610.512 111.626 601.944 107.484C583.145 98.3874 570.226 85.3495 553.98 59.0824C543.041 41.3861 524.021 7.25611 521.889 1.4785C520.971 -1.01811 526.947 -0.05199 554.305 6.71088C619.567 22.8384 666.623 30.9118 737.947 38.2199C778.481 42.3714 789.87 44.9062 800.991 52.2717L808.096 56.978L851.307 55.9832C898 54.9118 907.38 55.9641 942.846 66.2471C969.448 73.9569 1048.81 103.39 1065.65 111.798C1094.1 125.984 1112.75 141.901 1112.77 152.012C1112.79 157.044 1101.23 165.844 1089.29 169.909L1078.33 173.64L1057.57 166.619C1046.16 162.754 1031.06 158.268 1024.03 156.632C1006.74 152.624 949.024 143.671 947.876 144.819C947.369 145.326 950.104 147.057 953.948 148.664C957.792 150.271 968.052 156.718 976.754 162.993C1004.03 182.67 1018.77 188.237 1043.71 188.275C1067.88 188.313 1095.35 179.37 1118.84 163.826C1127.59 158.038 1129.49 158.364 1154.14 169.89C1183.38 183.559 1209.46 202.461 1241.63 233.3C1248.5 239.891 1260.33 250.193 1267.9 256.181C1284.24 269.104 1290.48 277.226 1290.48 285.567C1290.48 293.908 1285.9 300.24 1275.85 305.568C1263.92 311.901 1256.23 310.093 1242.12 297.639C1228.36 285.49 1221.69 282.592 1204.34 281.234C1189.6 280.076 1188.62 282.152 1201.92 286.409C1205.99 287.709 1214.82 293.764 1221.55 299.858C1230.21 307.711 1236.33 311.585 1242.58 313.163C1252.88 315.756 1253.14 314.943 1235.99 334.523C1220.51 352.191 1219.69 352.87 1208.92 356.907C1203.78 358.839 1195.99 364.454 1189.69 370.767C1176.19 384.312 1164.99 391.391 1149.3 396.288C1134.73 400.842 1095.45 403.778 1095.45 400.315C1095.45 399.148 1101.29 393.514 1108.44 387.813C1121.42 377.444 1133.66 365.028 1137.28 358.543C1139.87 353.922 1145 356.094 1146.61 362.493C1148.04 368.204 1145.13 374.737 1137.48 382.935C1133.47 387.23 1133.06 388.397 1135.55 388.387C1146.48 388.32 1181.89 362.751 1175.78 359.337C1174.38 358.552 1157.67 354.64 1138.66 350.641C1106.62 343.907 1101.73 343.381 1071.41 343.333C1036.35 343.285 1017.95 345.744 987.445 354.592C963.73 361.47 949.808 368.606 938.218 379.816C925.663 391.965 925.003 396.164 936.736 389.286C943.076 385.565 946.824 384.561 950.926 385.46C959.016 387.239 985.943 404.314 995.859 413.956C1004.75 422.603 1013.69 438.587 1015.9 449.798C1017.06 455.643 1016.8 456.226 1013.53 455.165C980.856 444.604 967.144 442.299 955.526 445.408C949.779 446.948 949.989 449.97 955.832 449.97C965.413 449.97 984.748 457.709 1001.14 468.107C1023.86 482.513 1031.44 485.114 1051.47 485.363C1070.18 485.593 1073.55 483.871 1080.3 470.661C1083.13 465.125 1079.84 464.003 1070.44 467.294C1057.77 471.751 1043.92 472.163 1034.81 468.355C1025.66 464.539 1026.44 461.526 1036.56 461.526C1050.56 461.526 1071.14 455.863 1089.06 447.082C1098.4 442.509 1106.4 439.133 1106.85 439.582C1108.98 441.706 1102.54 465.859 1096.64 477.883C1092.55 486.195 1089.58 495.598 1088.87 502.447C1085.89 531.182 1071.26 551.71 1040.58 570.191C1007.6 590.058 966.618 589.791 923.139 569.406C895.752 556.569 880.998 545.368 849.271 513.333C822.955 486.769 817.763 482.436 805.036 476.41C769.761 459.737 690.767 448.402 625.209 450.602C459.209 456.188 312.075 529.288 212.676 655.544C175.527 702.741 142.097 773.383 129.245 831.886C120.324 872.463 120.611 873.056 135.222 844.149C225.049 666.487 425.091 531.23 671.461 481.575C702.634 475.291 749.259 470.508 749.259 473.597C749.259 474.19 742.116 477.041 733.396 479.939C697.021 492.011 653.838 512.587 617.09 535.353C551.063 576.265 498.959 630.961 470.244 689.512C456.589 717.367 449.398 742.61 448.05 767.433L447.055 785.713L453.596 771.278C489.559 691.913 538.709 635.973 611.831 591.197C629.846 580.168 653.532 567.331 655.875 567.331C656.41 567.331 647.556 576.638 636.205 588.011C585.669 638.642 555.969 691.855 541.166 758.279C535.458 783.895 534.941 837.73 540.153 863.758C551.149 918.693 575.361 969.276 610.961 1011.69L622.34 1025.25L568.954 1024.98C539.589 1024.82 504.754 1023.99 491.529 1023.13V1023.1Z" fill="#1D1D1D"/>
</svg>
