<svg width="59" height="46" viewBox="0 0 59 46" fill="none" xmlns="http://www.w3.org/2000/svg">
<path d="M22.459 45.9053C16.392 45.5156 11.2708 44.2849 7.51427 42.3136C3.36716 40.1372 0.862613 37.1355 0.145763 33.4847C-0.0501171 32.4874 -0.0477571 30.4987 0.149893 29.4661C0.849043 25.8175 2.98189 22.2524 6.51953 18.8187C10.2566 15.1922 16.9661 10.9905 22.3268 8.92014C23.1493 8.60277 23.9015 8.30915 23.9983 8.26803C24.1717 8.19448 24.1717 8.19332 23.9918 8.18753C23.6655 8.17711 21.8696 8.52227 20.6323 8.83327C14.4102 10.3975 8.48423 13.7634 2.76182 18.9837C2.06444 19.6202 1.33933 20.2723 1.14994 20.4333L0.806563 20.7258L0.947573 20.3899C1.17177 19.8565 2.01665 18.4098 2.62848 17.5104C6.34843 12.0434 12.9216 7.78214 22.4283 4.67393L24.7293 3.92163L25.1553 4.29054C26.0391 5.05558 27.3046 5.48471 28.8799 5.55305L29.8033 5.59301L29.0115 5.37294C28.5761 5.2519 27.8994 5.00056 27.507 4.81466C26.6474 4.40637 26.0562 3.82144 25.3134 2.64233C24.8131 1.84834 23.9434 0.316527 23.8455 0.0570748C23.803 -0.054698 24.0768 -0.0118421 25.3281 0.291624C28.313 1.01554 30.4653 1.3775 33.7274 1.70587C35.5812 1.89235 36.1021 2.00586 36.6107 2.33654L36.9358 2.54793L38.9123 2.50334C41.0475 2.45527 41.477 2.50218 43.0989 2.96375C44.3155 3.31007 47.9452 4.63049 48.7157 5.00809C50.0167 5.64456 50.8692 6.35921 50.8704 6.81267C50.871 7.03853 50.3424 7.4335 49.7966 7.61593L49.2951 7.7833L48.3458 7.46825C47.8237 7.29509 47.1334 7.09355 46.8118 7.02C46.0212 6.83989 43.3815 6.43797 43.329 6.48951C43.306 6.5121 43.4311 6.5897 43.6069 6.66209C43.7827 6.73449 44.2524 7.02347 44.6501 7.30493C45.8973 8.18811 46.5717 8.43772 47.7127 8.43945C48.8184 8.44119 50.0745 8.03985 51.1489 7.342C51.5489 7.08196 51.6362 7.09702 52.7637 7.61419C54.1013 8.22749 55.2942 9.07592 56.7651 10.4601C57.0796 10.756 57.6206 11.2181 57.9669 11.4869C58.7139 12.0671 58.9994 12.4314 58.9994 12.8055C58.9994 13.1797 58.79 13.464 58.3304 13.7032C57.7846 13.9876 57.433 13.9059 56.7875 13.347C56.1586 12.8021 55.853 12.6718 55.0594 12.611C54.3851 12.5588 54.3402 12.6521 54.9485 12.8432C55.1349 12.9017 55.5391 13.1733 55.8465 13.4466C56.243 13.7993 56.5226 13.9731 56.8088 14.0437C57.2802 14.1601 57.2914 14.1237 56.5073 15.0022C55.7999 15.795 55.7621 15.8251 55.2695 16.007C55.034 16.0939 54.6777 16.3458 54.3898 16.629C53.772 17.2371 53.2599 17.5544 52.5425 17.7745C51.8758 17.9789 50.0792 18.1104 50.0792 17.9552C50.0792 17.9025 50.3465 17.65 50.6728 17.394C51.2669 16.9284 51.8262 16.3713 51.992 16.0805C52.11 15.8732 52.3448 15.9705 52.4186 16.2578C52.4841 16.5143 52.3507 16.8068 52.0009 17.1751C51.8174 17.368 51.7985 17.4201 51.9129 17.4195C52.4127 17.4166 54.0322 16.2688 53.7532 16.1153C53.6889 16.08 52.9248 15.9045 52.0557 15.725C50.5902 15.4226 50.3666 15.3989 48.9801 15.3972C47.3764 15.3948 46.5351 15.5055 45.1398 15.9027C44.0553 16.2114 43.4181 16.5317 42.8883 17.035C42.3136 17.5799 42.2836 17.7687 42.8205 17.46C43.1107 17.2932 43.2818 17.2481 43.4695 17.288C43.8394 17.368 45.0707 18.1341 45.5244 18.5668C45.9315 18.9548 46.3398 19.6723 46.4413 20.175C46.4938 20.4374 46.4826 20.4634 46.3327 20.4159C44.8383 19.9422 44.2111 19.8385 43.6801 19.9781C43.4175 20.047 43.427 20.1825 43.6943 20.1825C44.132 20.1825 45.017 20.53 45.7663 20.9962C46.8053 21.6425 47.1522 21.7595 48.0685 21.7705C48.924 21.781 49.0786 21.7039 49.3872 21.1109C49.5166 20.8623 49.3663 20.8119 48.9364 20.9597C48.357 21.1595 47.7234 21.1781 47.3062 21.0072C46.8885 20.8358 46.9233 20.7009 47.3865 20.7009C48.0272 20.7009 48.9683 20.4466 49.7878 20.0528C50.2149 19.8478 50.5807 19.6961 50.6014 19.7163C50.6987 19.8113 50.4043 20.8955 50.1341 21.4352C49.9477 21.8082 49.8114 22.2304 49.7789 22.5379C49.6426 23.8276 48.9736 24.7484 47.57 25.5783C46.0613 26.4702 44.1869 26.458 42.1986 25.543C40.946 24.9668 40.2711 24.4641 38.8203 23.0267C37.6167 21.8342 37.3795 21.6396 36.7971 21.3698C35.1835 20.6215 31.5709 20.1125 28.5726 20.2115C20.9804 20.4623 14.2509 23.7425 9.70494 29.4093C8.00574 31.5272 6.47705 34.6974 5.88882 37.3232C5.48113 39.1445 5.49411 39.1706 6.16199 37.8733C10.2702 29.8998 19.4193 23.8299 30.6877 21.6014C32.1137 21.3194 34.246 21.1045 34.246 21.2435C34.246 21.2702 33.9191 21.3981 33.5203 21.5279C31.8565 22.0694 29.8818 22.9931 28.2009 24.0147C25.1812 25.8505 22.7976 28.3055 21.4849 30.933C20.8601 32.1833 20.5314 33.3161 20.4701 34.4298L20.4247 35.2499L20.7238 34.6024C22.3687 31.0407 24.6166 28.5302 27.9607 26.5206C28.7844 26.0254 29.8676 25.4498 29.9756 25.4498C30.0004 25.4498 29.595 25.8673 29.0758 26.3781C26.7642 28.6506 25.406 31.0384 24.7293 34.0192C24.4679 35.1688 24.4443 37.5849 24.6827 38.753C25.186 41.2184 26.2928 43.488 27.9212 45.3917L28.4416 46.0003L26.0002 45.9882C24.6573 45.9812 23.0637 45.9441 22.459 45.9053Z" fill="#444343"/>
</svg>
