<svg width="48" height="48" viewBox="0 0 48 48" fill="none" xmlns="http://www.w3.org/2000/svg">
<path d="M35.4147 24.5859C35.2291 24.4 35.0087 24.2525 34.7661 24.1519C34.5234 24.0513 34.2633 23.9995 34.0007 23.9995C33.738 23.9995 33.4779 24.0513 33.2353 24.1519C32.9927 24.2525 32.7722 24.4 32.5867 24.5859L29.3987 27.7739C27.9207 27.3339 25.1627 26.3339 23.4147 24.5859C21.6667 22.8379 20.6667 20.0799 20.2267 18.6019L23.4147 15.4139C23.6006 15.2283 23.748 15.0079 23.8487 14.7653C23.9493 14.5227 24.0011 14.2626 24.0011 13.9999C24.0011 13.7372 23.9493 13.4772 23.8487 13.2345C23.748 12.9919 23.6006 12.7715 23.4147 12.5859L15.4147 4.58591C15.2291 4.40002 15.0087 4.25255 14.7661 4.15193C14.5234 4.0513 14.2633 3.99951 14.0007 3.99951C13.738 3.99951 13.4779 4.0513 13.2353 4.15193C12.9927 4.25255 12.7722 4.40002 12.5867 4.58591L7.16267 10.0099C6.40267 10.7699 5.97467 11.8139 5.99067 12.8799C6.03667 15.7279 6.79067 25.6199 14.5867 33.4159C22.3827 41.2119 32.2747 41.9639 35.1247 42.0119H35.1807C36.2367 42.0119 37.2347 41.5959 37.9907 40.8399L43.4147 35.4159C43.6006 35.2303 43.748 35.0099 43.8487 34.7673C43.9493 34.5247 44.0011 34.2646 44.0011 34.0019C44.0011 33.7392 43.9493 33.4792 43.8487 33.2365C43.748 32.9939 43.6006 32.7735 43.4147 32.5879L35.4147 24.5859ZM35.1607 38.0099C32.6647 37.9679 24.1247 37.2979 17.4147 30.5859C10.6827 23.8539 10.0307 15.2839 9.99067 12.8379L14.0007 8.82791L19.1727 13.9999L16.5867 16.5859C16.3516 16.8208 16.1788 17.1106 16.0838 17.4291C15.9888 17.7475 15.9747 18.0846 16.0427 18.4099C16.0907 18.6399 17.2647 24.0939 20.5847 27.4139C23.9047 30.7339 29.3587 31.9079 29.5887 31.9559C29.9138 32.0258 30.2512 32.0128 30.57 31.9181C30.8887 31.8234 31.1785 31.65 31.4127 31.4139L34.0007 28.8279L39.1727 33.9999L35.1607 38.0099Z" fill="#FF8856"/>
</svg>
