<svg width="1418" height="213" viewBox="0 0 1418 213" fill="none" xmlns="http://www.w3.org/2000/svg">
<path d="M0.000366211 97.437H145.26C135.032 125.494 108.254 144.184 78.2598 144.184H54.9712V211.717H0.0117044V97.4258L0.000366211 97.437Z" fill="#444343"/>
<path d="M54.9598 49.0895V76.1997H0.000366211V2.34277H78.2485C117.61 2.34277 149.519 34.0972 149.519 73.2689C149.519 74.2496 149.496 75.2302 149.462 76.1997H95.0693C96.7004 62.9433 87.2196 50.8931 73.9101 49.2699C72.936 49.1459 71.9506 49.0895 70.9651 49.0895H54.9712H54.9598Z" fill="#444343"/>
<path d="M247.149 97.4365H196.267L158.423 211.728H218.163L228.063 172.68H297.645L307.545 211.728H367.285L329.441 97.4365H278.559L286.035 126.925H239.662L247.137 97.4365H247.149Z" fill="#444343"/>
<path d="M252.54 76.1997H203.312L227.767 2.34277H297.962L322.417 76.1997H273.189L262.87 35.495L252.551 76.1997H252.54Z" fill="#444343"/>
<path d="M390.05 97.4365H437.896V211.728H390.05V97.4365Z" fill="#444343"/>
<path d="M457.899 2.34277H390.05V76.1997H437.896V67.8806L442.279 76.1997H496.842L457.899 2.34277Z" fill="#444343"/>
<path d="M583.374 76.1997V2.34277H535.528V76.1997H583.374Z" fill="#444343"/>
<path d="M508.036 97.4365L535.527 149.583V97.4365H583.373V211.728H513.723L453.473 97.4365H508.036Z" fill="#444343"/>
<path d="M768.932 2.34277H613.659V52.8883H663.816V76.2109H718.775V52.8883H768.932V2.34277Z" fill="#444343"/>
<path d="M663.816 97.4365H718.776V211.728H663.816V97.4365Z" fill="#444343"/>
<path d="M797.496 2.34277H852.456V76.1997H797.496V2.34277Z" fill="#444343"/>
<path d="M919.02 2.34277H973.979V76.1997H919.02V2.34277Z" fill="#444343"/>
<path d="M797.496 97.4365H973.974V211.728H919.014V127.038H852.467V211.728H797.508V97.4365H797.496Z" fill="#444343"/>
<path d="M1069.24 97.4365C1066.74 116.566 1070.91 135.966 1081.03 152.412C1091.8 168.825 1113.9 173.446 1130.41 162.726C1134.54 160.044 1138.08 156.527 1140.77 152.412C1150.9 135.966 1155.07 116.566 1152.56 97.4365H1211.07C1214 135.109 1197.67 171.722 1167.61 194.808C1133.67 218.886 1088.12 218.886 1054.18 194.808C1024.06 171.778 1007.78 135.098 1010.96 97.4365H1069.22H1069.24Z" fill="#444343"/>
<path d="M1072.81 76.1997C1075.08 67.8356 1079.93 60.3958 1086.68 54.9174C1100.89 43.7689 1120.92 43.7689 1135.13 54.9174C1141.88 60.3845 1146.73 67.8356 1149 76.1997H1207.16C1201.88 44.3551 1179.62 17.8762 1149.06 7.07723C1124.3 -1.17418 1097.51 -1.17418 1072.75 7.07723C1042.19 17.8762 1019.93 44.3551 1014.65 76.1997H1072.81Z" fill="#444343"/>
<path d="M1301.02 49.0895V76.1997H1246.06V2.34277H1324.31C1363.67 2.34277 1395.58 34.0972 1395.58 73.2689C1395.58 74.2496 1395.56 75.2302 1395.52 76.1997H1341.13C1342.76 62.9433 1333.28 50.8931 1319.97 49.2699C1319 49.1459 1318.01 49.0895 1317.03 49.0895H1301.03H1301.02Z" fill="#444343"/>
<path d="M1387.25 97.4365H1246.04V211.728H1301V134.545H1316.28L1363.04 211.728H1418L1362.15 119.542C1372.39 114.593 1381.06 106.95 1387.24 97.4365H1387.25Z" fill="#444343"/>
</svg>
