<svg width="1002" height="798" viewBox="0 0 1002 798" fill="none" xmlns="http://www.w3.org/2000/svg">
<g opacity="0.3" clip-path="url(#clip0_10506_5373)">
<path opacity="0.15" d="M381.419 796.23C278.386 789.484 191.411 768.152 127.618 733.997C57.191 696.288 14.6468 644.282 2.47335 581.024C-0.854121 563.738 -0.816984 529.286 2.5402 511.391C14.4166 448.169 50.64 386.406 110.72 326.918C174.18 264.083 288.131 191.282 379.183 155.417C393.154 149.913 405.922 144.832 407.571 144.118C410.512 142.847 410.512 142.824 407.459 142.72C401.919 142.542 371.422 148.522 350.402 153.907C244.725 181.01 144.084 239.323 46.9114 329.767C35.0648 340.789 22.7501 352.095 19.5415 354.884L13.711 359.957L16.11 354.14C19.9203 344.895 34.2626 319.837 44.6609 304.247C107.831 209.527 219.465 135.699 380.921 81.849L419.997 68.8179L427.231 75.207C442.234 88.4612 463.729 95.8916 490.49 97.0817L506.177 97.7734L492.733 93.9578C485.336 91.8603 473.838 87.5017 467.183 84.2812C452.581 77.2078 442.546 67.07 429.927 46.6458C421.43 32.8858 406.657 6.34763 405.001 1.85519C404.288 -0.0860853 408.93 0.665135 430.18 5.92368C480.872 18.4639 517.422 24.7414 572.823 30.4239C604.308 33.6519 613.154 35.6229 621.792 41.35L627.31 45.0094L660.875 44.2359C697.143 43.4029 704.429 44.221 731.977 52.2167C752.64 58.2116 814.28 81.0978 827.367 87.6356C849.464 98.6659 863.947 111.042 863.962 118.904C863.977 122.817 854.997 129.659 845.728 132.82L837.216 135.721L821.091 130.262C812.223 127.257 800.495 123.769 795.036 122.497C781.607 119.38 736.775 112.418 735.884 113.311C735.49 113.705 737.615 115.051 740.6 116.301C743.586 117.551 751.556 122.564 758.315 127.443C779.498 142.742 790.951 147.071 810.321 147.101C829.098 147.131 850.437 140.176 868.678 128.09C875.474 123.59 876.952 123.843 896.1 132.806C918.813 143.434 939.068 158.131 964.053 182.111C969.394 187.236 978.581 195.246 984.464 199.902C997.15 209.951 1002 216.265 1002 222.751C1002 229.237 998.442 234.161 990.636 238.304C981.367 243.227 975.395 241.822 964.44 232.138C953.752 222.692 948.567 220.438 935.094 219.382C923.641 218.482 922.883 220.096 933.207 223.406C936.372 224.417 943.234 229.125 948.456 233.863C955.185 239.97 959.939 242.982 964.796 244.209C972.796 246.225 972.996 245.593 959.671 260.818C947.654 274.556 947.015 275.084 938.652 278.222C934.656 279.725 928.603 284.091 923.715 289C913.228 299.532 904.523 305.036 892.342 308.844C881.023 312.384 850.511 314.668 850.511 311.975C850.511 311.068 855.049 306.687 860.597 302.254C870.684 294.191 880.191 284.537 883.006 279.494C885.011 275.902 889 277.59 890.247 282.566C891.362 287.007 889.096 292.087 883.154 298.461C880.042 301.8 879.723 302.708 881.661 302.7C890.151 302.648 917.655 282.767 912.908 280.112C911.817 279.502 898.841 276.46 884.075 273.351C859.186 268.114 855.391 267.705 831.838 267.668C804.602 267.631 790.312 269.543 766.619 276.423C748.199 281.77 737.384 287.319 728.382 296.036C718.63 305.482 718.118 308.747 727.231 303.399C732.155 300.506 735.067 299.725 738.253 300.424C744.537 301.808 765.452 315.084 773.155 322.582C780.062 329.305 787.007 341.734 788.722 350.451C789.621 354.996 789.421 355.449 786.88 354.624C761.501 346.412 750.85 344.62 741.826 347.037C737.362 348.235 737.525 350.585 742.064 350.585C749.506 350.585 764.524 356.602 777.255 364.687C794.902 375.889 800.792 377.912 816.352 378.105C830.88 378.284 833.502 376.945 838.746 366.673C840.94 362.369 838.387 361.496 831.088 364.055C821.247 367.521 810.485 367.841 803.406 364.881C796.306 361.913 796.907 359.57 804.766 359.57C815.647 359.57 831.63 355.167 845.549 348.339C852.799 344.784 859.015 342.158 859.364 342.508C861.021 344.159 856.022 362.939 851.432 372.289C848.26 378.752 845.951 386.063 845.401 391.389C843.083 413.732 831.72 429.694 807.893 444.064C782.275 459.512 750.442 459.304 716.669 443.454C695.397 433.472 683.937 424.762 659.293 399.853C638.852 379.198 634.819 375.829 624.934 371.143C597.534 358.179 536.176 349.365 485.254 351.076C356.314 355.42 242.029 412.259 164.821 510.431C135.966 547.13 110 602.058 100.017 647.548C93.0876 679.099 93.3104 679.56 104.659 657.083C174.432 518.94 329.813 413.769 521.18 375.16C545.394 370.273 581.609 366.554 581.609 368.956C581.609 369.418 576.061 371.634 569.287 373.888C541.034 383.274 507.492 399.273 478.948 416.975C427.662 448.787 387.19 491.316 364.886 536.843C354.279 558.502 348.694 578.13 347.647 597.432L346.874 611.645L351.954 600.422C379.889 538.71 418.066 495.214 474.863 460.397C488.856 451.821 507.254 441.84 509.074 441.84C509.49 441.84 502.612 449.077 493.795 457.92C454.542 497.289 431.472 538.665 419.975 590.314C415.54 610.232 415.139 652.092 419.187 672.33C427.729 715.046 446.535 754.377 474.187 787.356L483.026 797.903L441.559 797.688C418.749 797.569 391.691 796.921 381.419 796.252V796.23Z" fill="#444343"/>
</g>
<defs>
<clipPath id="clip0_10506_5373">
<rect width="1002" height="797" fill="white" transform="translate(0 0.888672)"/>
</clipPath>
</defs>
</svg>
